<svg xmlns="http://www.w3.org/2000/svg" width="84" height="84" viewBox="0 0 84 84" fill="none"><metadata><rdf:RDF xmlns:rdf="http://www.w3.org/1999/02/22-rdf-syntax-ns#" xmlns:dc="http://purl.org/dc/elements/1.1/"><rdf:Description><dc:creator>RealFaviconGenerator</dc:creator><dc:source>https://realfavicongenerator.net</dc:source></rdf:Description></rdf:RDF></metadata><circle cx="42" cy="42" r="42" fill="#D9D9D9"></circle><circle cx="42" cy="42" r="42" fill="url(#paint0_linear_157_86)"></circle><path d="M40.195 16.695H44.095H44.16C44.7233 16.9117 45.0483 17.15 45.135 17.41L60.735 56.995L60.865 57.32H64.375H67.82V59.66V62H67.04L61.45 61.87C58.2867 61.8267 54.8633 61.8267 51.18 61.87L44.875 62H44.03V59.66V57.32H46.825L49.62 57.255L48.45 54.33L47.28 51.405H39.285C33.955 51.405 31.29 51.4267 31.29 51.47L30.12 54.395L29.015 57.255C29.015 57.2983 29.9467 57.32 31.81 57.32H34.54V59.66V62H33.89L29.08 61.87C26.2633 61.8267 23.6633 61.8267 21.28 61.87L17.185 62H16.6V59.66V57.32H20.045H23.555L23.685 56.995L39.285 17.41C39.415 17.1933 39.7183 16.955 40.195 16.695ZM42.405 38.925L39.35 31.125H39.285L33.175 46.725H39.35L45.46 46.66L42.405 38.925Z" fill="white"></path><defs>
<linearGradient id="paint0_linear_157_86" x1="42" y1="0" x2="42" y2="84" gradientUnits="userSpaceOnUse">
<stop stop-color="#3D559D"></stop>
<stop offset="1" stop-color="#7591E6"></stop>
</linearGradient>
</defs></svg>